<svg version="1.1" id="Layer_1" xmlns="http://www.w3.org/2000/svg" xmlns:xlink="http://www.w3.org/1999/xlink" x="0px" y="0px"
	 width="100%" viewBox="0 0 1024 1024" enable-background="new 0 0 1024 1024" xml:space="preserve">
<path fill="#000000" opacity="1.000000" stroke="none" 
	d="
M271.000000,552.933777 
	C304.485199,552.943176 337.470459,552.928833 370.455597,552.976196 
	C378.790436,552.988159 382.542694,555.217590 384.408691,560.913330 
	C386.527130,567.379639 382.843414,574.292786 375.741089,574.924927 
	C368.960754,575.528442 370.138641,579.281311 370.546112,583.996216 
	C377.450653,582.679138 384.073730,581.398682 390.703857,580.156006 
	C397.154694,578.946838 401.803497,580.675110 403.624237,584.911133 
	C405.878906,590.156799 404.321716,595.436584 398.506775,599.070007 
	C392.452698,602.852905 386.004486,606.024170 379.627197,609.263123 
	C376.118835,611.045105 374.558075,613.175781 375.105438,617.480042 
	C376.216644,626.218079 376.450836,635.043152 376.390411,643.880859 
	C376.212830,669.850769 354.965912,690.805237 329.031525,691.497986 
	C292.889496,692.463501 256.753693,692.581726 220.613464,692.094482 
	C212.827896,691.989502 204.962341,691.933533 197.262985,690.321838 
	C175.965851,685.863953 160.640060,667.040894 160.686981,645.220886 
	C160.704865,636.914246 160.350983,628.613831 161.523712,620.300049 
	C162.456299,613.688660 160.937164,611.829102 154.642288,609.479248 
	C146.849304,606.570068 138.928909,603.985352 131.438919,600.316895 
	C127.754082,598.512146 124.687866,596.098328 123.302544,591.981995 
	C121.173401,585.655334 124.280678,580.944458 130.898163,580.624695 
	C139.980209,580.185852 148.636826,583.030273 157.524460,584.094360 
	C159.335800,584.311279 161.140121,584.630005 162.957535,584.741943 
	C165.310822,584.886780 168.583221,586.888733 168.657684,582.027771 
	C168.713287,578.398865 169.169846,575.134155 163.571869,575.216919 
	C156.935791,575.315063 152.790970,570.849121 152.669662,564.729919 
	C152.536407,558.007568 156.178238,553.791809 163.056732,553.128479 
	C166.526794,552.793823 170.046143,552.923645 173.543228,552.922913 
	C205.862152,552.916382 238.181076,552.927124 271.000000,552.933777 
z"/>
<path fill="#000000" opacity="1.000000" stroke="none" 
	d="
M357.830017,537.126465 
	C360.840118,540.110535 364.467926,542.080811 366.321014,546.609680 
	C301.015442,546.609680 236.227859,546.609680 171.448135,546.609680 
	C170.728043,544.270020 172.528168,543.507690 173.572601,542.345459 
	C185.386673,529.199219 200.952103,523.355286 217.633881,519.623291 
	C230.448822,516.756348 243.433395,515.178223 257.193268,514.369324 
	C253.573090,509.825348 250.717789,505.836487 244.291107,506.155457 
	C238.746048,506.430695 234.926346,503.003418 233.218750,497.704529 
	C231.281555,491.693237 229.408630,485.618195 229.671738,479.195068 
	C229.823029,475.501831 228.641602,474.318176 224.697357,474.721588 
	C193.218857,477.941162 163.914536,451.464600 163.635269,419.822266 
	C163.456085,399.519989 163.256470,379.225525 163.506516,358.915039 
	C163.848602,331.129669 182.934937,307.194763 212.466980,301.699890 
	C216.733521,300.906006 221.025375,300.641632 225.371460,300.649261 
	C256.191650,300.703217 287.011932,300.664612 317.832184,300.679596 
	C347.948547,300.694214 371.370422,319.661987 377.722351,349.173004 
	C378.035126,350.626312 378.300171,352.125183 378.306244,353.603943 
	C378.395538,375.426270 378.700470,397.252136 378.421295,419.070374 
	C378.095123,444.560516 361.674408,465.340576 337.091217,472.314697 
	C329.145325,474.568939 321.080475,474.929291 312.883331,474.619751 
	C305.230713,474.330750 297.561859,474.450500 289.900085,474.436737 
	C287.521210,474.432465 285.247192,474.989960 283.331421,476.474792 
	C277.684875,480.851105 272.088715,485.289856 266.699615,490.756836 
	C269.201416,491.835236 271.453674,491.600830 273.666046,491.432922 
	C281.293335,490.854034 285.673157,493.045746 287.999817,498.674988 
	C290.560364,504.870117 289.417877,508.303406 283.050842,513.645813 
	C282.833069,513.828552 282.787415,514.216370 282.471832,514.949097 
	C289.464020,515.860474 296.337524,516.635193 303.170868,517.674194 
	C314.681091,519.424316 326.069427,521.730469 337.084167,525.640259 
	C344.529694,528.283081 351.397461,531.930115 357.830017,537.126465 
M181.421524,364.847198 
	C181.866394,383.973602 180.297028,403.131836 182.321289,422.233093 
	C184.055023,438.592834 197.756378,453.264343 213.660675,455.535278 
	C221.907562,456.712799 230.233276,456.797180 238.563385,456.681152 
	C246.024918,456.577179 247.970596,458.611603 248.213379,466.027374 
	C248.363480,470.612183 247.754745,475.244049 248.683914,479.803314 
	C250.932358,479.956787 251.885040,478.362030 253.087708,477.353210 
	C258.701111,472.644470 264.418152,468.035248 269.744507,463.015198 
	C274.917389,458.139832 280.852356,456.037140 287.847107,456.035065 
	C299.173492,456.031677 310.509583,456.047638 321.823578,455.600494 
	C334.220612,455.110504 344.678833,450.336578 352.519745,440.360565 
	C357.904114,433.510010 360.392120,425.412506 360.427338,417.123291 
	C360.517090,396.004120 361.970642,374.830170 359.608521,353.759430 
	C357.686859,336.617737 339.368103,319.549774 322.403198,319.421814 
	C288.423553,319.165466 254.436981,319.079437 220.460861,319.514343 
	C208.622955,319.665863 198.784943,325.440155 191.142532,334.551239 
	C184.032013,343.028168 182.487717,353.406158 181.421524,364.847198 
z"/>
<path fill="#000000" opacity="1.000000" stroke="none" 
	d="
M505.495300,515.507751 
	C506.998352,517.903320 508.313416,519.993896 509.491089,521.866089 
	C508.525909,523.989258 507.016144,523.382263 505.792908,523.388611 
	C498.130615,523.428345 490.462769,523.235229 482.807617,523.471252 
	C479.137878,523.584412 477.082825,522.205627 475.336548,519.036011 
	C468.909912,507.370758 462.239807,495.839111 455.614410,484.284119 
	C453.498505,480.593842 443.197144,478.287628 439.648346,480.608612 
	C437.898956,481.752747 438.373077,483.555420 438.367157,485.147186 
	C438.327393,495.807983 438.348572,506.468994 438.349884,517.129944 
	C438.350098,518.947693 438.349884,520.765442 438.349884,523.239746 
	C429.738434,523.239746 421.499878,523.304382 413.263763,523.192383 
	C411.315277,523.165955 411.103210,521.372437 411.062317,519.840942 
	C410.982330,516.844360 410.971619,513.845276 410.971893,510.847229 
	C410.975189,475.199768 411.085541,439.551788 410.883911,403.905487 
	C410.854614,398.718994 412.557465,397.432007 417.484222,397.531036 
	C432.137207,397.825439 446.799927,397.606659 461.458588,397.656158 
	C485.017303,397.735657 500.842682,413.606110 501.493530,436.965668 
	C501.909912,451.908936 496.336395,463.494354 484.221344,471.964417 
	C481.364166,473.962006 481.221069,475.658661 482.983582,478.501709 
	C490.527954,490.671448 497.883148,502.958496 505.495300,515.507751 
M468.128998,451.691345 
	C474.158752,446.158112 474.818146,439.336853 472.554810,432.013947 
	C470.726807,426.099457 466.114197,423.035675 460.286407,422.505524 
	C454.340210,421.964569 448.310852,422.339386 442.317902,422.309753 
	C439.720032,422.296906 438.311707,423.352966 438.336090,426.180725 
	C438.409302,434.671326 438.385803,443.162994 438.358521,451.654114 
	C438.351715,453.762665 439.075531,455.556213 441.310486,455.491516 
	C450.151947,455.235443 459.377777,457.736755 468.128998,451.691345 
z"/>
<path fill="#000000" opacity="1.000000" stroke="none" 
	d="
M696.718201,619.259705 
	C697.989197,608.377625 700.857666,598.611389 707.933960,590.494141 
	C722.091064,574.254639 748.498291,572.044006 765.151245,585.717651 
	C765.650085,586.127197 766.209778,586.462524 766.819885,586.887329 
	C768.247864,585.168457 767.603455,583.271362 767.614197,581.550842 
	C767.684937,570.230164 767.755188,558.907532 767.596497,547.588684 
	C767.545837,543.970398 768.705261,542.475891 772.449341,542.626221 
	C777.934387,542.846436 783.455200,542.966919 788.923157,542.587646 
	C793.868103,542.244751 795.498352,543.773804 795.462891,548.948792 
	C795.235046,582.244507 795.347107,615.542603 795.347595,648.839905 
	C795.347656,654.333984 795.350159,659.828003 795.347473,665.322083 
	C795.343506,673.288696 795.341980,673.290710 787.129456,673.294434 
	C783.466736,673.296143 779.761597,672.934570 776.151367,673.368103 
	C770.860535,674.003540 768.860474,671.580078 768.747131,666.731689 
	C768.723938,665.738770 768.619751,664.747681 768.492432,662.858887 
	C763.310669,667.773315 758.349854,671.802979 751.791992,673.631042 
	C729.715881,679.784973 702.159729,669.996826 697.499512,638.627991 
	C696.558655,632.294373 696.883362,626.029114 696.718201,619.259705 
M757.033569,650.734009 
	C762.196533,647.678894 765.341309,643.092712 766.699585,637.359558 
	C768.682251,628.990601 767.342896,620.472107 767.496155,612.020508 
	C767.507324,611.403564 767.193970,610.699158 766.834229,610.169312 
	C761.402832,602.169739 753.826965,598.712891 744.203979,599.266296 
	C736.021301,599.736755 731.015503,604.240051 728.236938,611.506714 
	C725.702881,618.133850 725.612854,624.973022 726.133667,632.070618 
	C727.350342,648.653992 738.660706,656.928894 757.033569,650.734009 
z"/>
<path fill="#000000" opacity="1.000000" stroke="none" 
	d="
M817.262695,465.229370 
	C818.742920,475.625977 818.759155,485.528809 816.235413,495.353302 
	C810.437866,517.921814 788.645508,531.314453 767.447510,525.226257 
	C765.071777,524.543945 762.737854,523.529297 760.583496,522.315735 
	C758.443481,521.110229 756.554565,519.459106 754.168884,517.721802 
	C752.662109,530.037170 753.430786,542.109497 753.481873,554.135803 
	C753.501221,558.685669 752.321045,560.422668 747.695862,560.103760 
	C743.055542,559.783813 738.375549,560.064270 733.713379,560.028809 
	C727.122498,559.978699 726.935730,559.810303 726.932922,553.326843 
	C726.917847,519.190674 726.922852,485.054535 726.922119,450.918396 
	C726.921997,446.422455 727.064758,441.921234 726.890625,437.432190 
	C726.746826,433.724640 728.282410,432.385559 731.930908,432.599915 
	C735.913574,432.833893 739.944092,432.924072 743.911377,432.583099 
	C749.207275,432.127869 752.842957,433.277771 752.236023,441.135376 
	C757.274841,435.703278 762.043152,432.261230 767.940308,430.830933 
	C785.765808,426.507538 809.188232,433.012238 816.208191,460.426331 
	C816.578796,461.873779 816.887329,463.337128 817.262695,465.229370 
M785.253296,458.311829 
	C779.840332,451.882843 772.857910,450.767212 765.371765,453.217224 
	C758.230896,455.554352 754.357727,462.320953 754.329590,471.010742 
	C754.307007,477.995575 754.328857,484.980591 754.338196,491.965515 
	C754.340576,493.791290 754.227234,495.634155 755.547546,497.174286 
	C763.060547,505.938141 780.978027,507.411957 786.910645,494.682739 
	C792.467346,482.760284 792.360535,470.601044 785.253296,458.311829 
z"/>
<path fill="#000000" opacity="1.000000" stroke="none" 
	d="
M472.000000,572.068176 
	C462.672272,572.049255 453.843109,572.115723 445.017517,571.968628 
	C441.402893,571.908386 439.941620,573.259644 440.037201,576.957520 
	C440.213531,583.781494 440.232727,590.620911 439.970886,597.440613 
	C439.806946,601.711914 441.614197,602.795288 445.594055,602.734924 
	C458.083374,602.545471 470.578766,602.772034 483.069092,602.618286 
	C486.852631,602.571777 488.578888,603.666077 488.353210,607.720276 
	C488.085144,612.535522 488.099426,617.387939 488.359161,622.204468 
	C488.578125,626.264404 486.803436,627.337769 483.041473,627.287598 
	C471.050995,627.127441 459.057098,627.224426 447.064514,627.221558 
	C440.034210,627.219849 440.037689,627.219360 440.035400,634.493408 
	C440.031860,645.653137 439.892365,656.815063 440.083740,667.971375 
	C440.155304,672.144836 438.608856,673.537170 434.522186,673.361389 
	C428.370728,673.096741 422.195435,673.159302 416.038116,673.343689 
	C412.466125,673.450684 410.949799,672.280396 410.958160,668.506714 
	C411.044403,629.531189 411.035553,590.555298 410.977112,551.579712 
	C410.971832,548.045227 412.099976,546.576599 415.886810,546.596252 
	C441.037262,546.726807 466.188934,546.713806 491.339661,546.611755 
	C494.954193,546.597107 496.471252,547.742126 496.308563,551.488220 
	C496.084747,556.641968 496.059082,561.822205 496.313446,566.973083 
	C496.513458,571.023682 494.729462,572.212708 490.987335,572.109985 
	C484.829163,571.940857 478.662842,572.066284 472.000000,572.068176 
z"/>
<path fill="#000000" opacity="1.000000" stroke="none" 
	d="
M579.657471,649.073608 
	C583.576172,650.031311 584.118042,651.801880 582.171387,654.915955 
	C574.179260,667.700989 562.840332,674.759155 547.684082,675.378052 
	C538.825073,675.739807 530.075562,675.383179 521.790588,671.573730 
	C510.607666,666.431702 502.754120,658.262329 499.044281,646.476135 
	C495.002625,633.635742 494.707336,620.613647 498.730438,607.732056 
	C505.016235,587.605530 524.411560,575.768616 545.456665,577.300537 
	C569.385925,579.042480 580.890991,593.431702 583.809082,610.558899 
	C584.782349,616.271179 585.382629,622.050598 585.424072,627.898438 
	C585.451538,631.772644 584.212463,633.153320 580.265137,633.117615 
	C563.616760,632.967224 546.966125,633.063416 530.316284,633.092285 
	C524.006470,633.103210 523.408569,634.083435 525.091431,640.129883 
	C527.066833,647.227478 531.514099,651.874817 538.640198,653.297546 
	C546.464966,654.859680 553.778687,653.076111 558.978699,646.739563 
	C561.834717,643.259277 564.239563,642.565308 568.173279,644.569031 
	C571.710266,646.370544 575.590210,647.498779 579.657471,649.073608 
M552.453613,600.950317 
	C540.149292,592.556030 524.544434,601.749939 525.153992,614.274536 
	C536.023071,614.274536 546.899963,614.274536 557.975281,614.274536 
	C558.175293,608.949707 556.743530,604.736389 552.453613,600.950317 
z"/>
<path fill="#000000" opacity="1.000000" stroke="none" 
	d="
M654.000000,633.061646 
	C645.007507,633.054626 636.513916,633.123230 628.022888,633.009338 
	C623.911316,632.954163 623.129211,634.389160 623.851318,638.500061 
	C626.723572,654.850647 648.002869,657.928162 656.724182,647.818604 
	C660.742065,643.161133 664.388672,642.611816 669.518860,645.336792 
	C673.733276,647.575439 678.641724,648.341797 683.146790,651.120728 
	C680.849548,657.775635 676.337402,662.566101 671.113525,666.621765 
	C643.138428,688.340698 601.889526,671.924500 596.553406,637.072815 
	C594.539734,623.921509 595.245422,611.132446 601.779968,599.267761 
	C615.380188,574.574219 648.376404,570.734192 667.863403,584.150574 
	C679.572998,592.212402 683.217285,604.546143 684.272034,617.925598 
	C684.546143,621.402893 684.161377,624.932861 684.447205,628.408386 
	C684.733765,631.892334 683.475525,633.178467 679.976807,633.114319 
	C671.487061,632.958679 662.992554,633.062744 654.000000,633.061646 
M630.438721,600.863953 
	C626.311646,604.344482 624.221741,608.742554 623.905212,614.648560 
	C634.553650,614.648560 644.673889,614.723877 654.792053,614.609497 
	C658.558289,614.566956 657.789734,611.743835 657.289551,609.505127 
	C654.703857,597.932983 642.827881,593.860168 630.438721,600.863953 
z"/>
<path fill="#000000" opacity="1.000000" stroke="none" 
	d="
M858.032837,430.644073 
	C883.553589,425.891388 906.832153,437.742249 909.500671,467.651917 
	C909.855713,471.630920 910.109497,475.601654 910.388794,479.580261 
	C910.681946,483.754425 909.055908,485.121552 904.948730,485.074860 
	C889.784546,484.902344 874.617310,484.993744 859.451233,484.991943 
	C857.784790,484.991730 856.118164,485.059326 854.452026,485.044647 
	C851.218811,485.016174 849.985535,486.107849 850.891968,489.649780 
	C852.702698,496.725464 855.956909,502.618835 863.478516,504.374573 
	C871.585938,506.267090 879.319946,504.927094 884.721619,497.965393 
	C887.496765,494.388702 889.978455,494.401672 893.622620,496.073700 
	C898.578125,498.347229 903.738342,500.174469 909.177307,502.339020 
	C905.909912,510.525421 900.525513,516.219666 893.600098,520.475952 
	C871.752869,533.903198 829.189941,527.121033 824.454468,488.448730 
	C823.427124,480.059204 823.431396,471.877655 825.294312,463.692230 
	C829.299133,446.095398 840.081787,435.077667 858.032837,430.644073 
M856.753052,454.212097 
	C853.143250,457.678680 850.954468,461.748779 851.129211,466.890961 
	C851.786560,467.161133 852.238403,467.506561 852.692749,467.509918 
	C861.335205,467.574402 869.978210,467.643494 878.620667,467.613739 
	C883.544739,467.596771 884.423767,466.352814 883.232239,461.520752 
	C880.403564,450.049164 868.286926,446.401459 856.753052,454.212097 
z"/>
<path fill="#000000" opacity="1.000000" stroke="none" 
	d="
M542.501404,525.926025 
	C521.652405,521.251770 509.280396,506.333191 507.846161,483.489868 
	C506.680176,464.919312 510.961639,448.104156 527.531738,437.152374 
	C541.636169,427.830292 557.049805,426.898163 572.284912,433.971649 
	C586.577209,440.607361 592.144104,453.327393 593.369751,468.356293 
	C593.653320,471.833740 593.838684,475.325073 594.287231,478.781708 
	C594.903992,483.535065 593.129517,485.205994 588.218933,485.128815 
	C572.558167,484.882599 556.890564,485.044830 541.225891,485.121796 
	C539.135010,485.132050 536.887573,484.601837 534.675476,486.291077 
	C535.556030,493.779358 537.848877,500.490723 545.571716,503.742340 
	C553.642090,507.140320 561.350708,505.731964 567.026428,499.346893 
	C571.043640,494.827606 574.492432,494.410797 579.430298,496.876129 
	C583.548401,498.932129 588.243347,499.761749 592.610962,502.772583 
	C587.216980,514.239563 578.699646,521.743896 566.657959,525.149597 
	C558.848999,527.358093 550.885986,527.381042 542.501404,525.926025 
M567.945801,466.199158 
	C567.236267,456.525421 562.903137,451.081482 555.303772,450.316315 
	C545.546753,449.333893 538.210449,454.136261 535.900146,462.927094 
	C535.344666,465.040985 534.888428,467.456909 537.798462,467.446960 
	C547.733826,467.412964 557.705566,468.560364 567.945801,466.199158 
z"/>
<path fill="#000000" opacity="1.000000" stroke="none" 
	d="
M628.619141,461.738251 
	C625.311584,472.207489 625.108093,482.391602 628.316895,492.489777 
	C630.591797,499.648743 635.827820,503.478333 642.631653,503.611023 
	C649.226135,503.739624 654.516235,500.253723 657.090515,493.420776 
	C658.143799,490.625183 659.377991,489.923492 662.192200,490.549255 
	C667.045044,491.628265 671.982605,492.321899 676.872742,493.240540 
	C678.151001,493.480652 679.385498,493.953979 680.572083,494.300323 
	C680.555603,507.828644 669.062012,521.423523 654.789001,525.035156 
	C625.767639,532.378784 600.919678,514.469543 598.601013,484.569244 
	C597.327087,468.140717 600.192017,453.127472 612.719604,441.149475 
	C625.263672,429.155701 647.745789,426.016541 663.007874,434.238678 
	C672.696411,439.458191 677.496582,448.039398 680.028809,458.316315 
	C680.817444,461.516663 679.091370,462.579498 676.539551,463.051514 
	C670.985901,464.078735 665.398132,464.926666 659.856995,466.014435 
	C657.221558,466.531769 656.789368,464.848480 656.228699,463.037628 
	C654.415955,457.183075 651.027466,453.019745 644.496277,452.359680 
	C637.112183,451.613403 632.037537,454.935425 628.619141,461.738251 
z"/>
<path fill="#000000" opacity="1.000000" stroke="none" 
	d="
M688.655396,498.000061 
	C688.658325,477.848877 688.781982,458.196442 688.575562,438.547485 
	C688.528076,434.030151 689.808960,432.278107 694.463806,432.575256 
	C699.937317,432.924683 705.450989,432.727386 710.945068,432.636169 
	C713.722900,432.590027 715.293091,433.339447 715.285461,436.529205 
	C715.219299,464.173767 715.218384,491.818573 715.270630,519.463196 
	C715.276550,522.605469 713.757385,523.450317 710.946594,523.406921 
	C704.952820,523.314331 698.954285,523.273499 692.962341,523.412659 
	C689.721863,523.487915 688.553650,522.174133 688.620422,518.983032 
	C688.763184,512.158142 688.659119,505.328033 688.655396,498.000061 
z"/>
<path fill="#000000" opacity="1.000000" stroke="none" 
	d="
M692.187134,394.971985 
	C699.656921,391.183563 706.979675,391.742554 712.030396,396.250946 
	C716.794067,400.503174 718.617432,407.876068 716.402344,414.047333 
	C714.158081,420.300140 709.635376,423.773041 703.102234,424.423126 
	C695.957886,425.134094 690.294983,422.336426 686.933533,416.008301 
	C683.691406,409.904846 684.460815,403.806610 688.629944,398.267212 
	C689.514160,397.092438 690.778503,396.203796 692.187134,394.971985 
z"/>
<path fill="#000000" opacity="1.000000" stroke="none" 
	d="
M311.999146,344.830322 
	C317.328735,344.829498 322.162048,344.713654 326.987518,344.858643 
	C333.111481,345.042633 337.186188,348.434631 337.108704,353.021851 
	C337.030212,357.668610 332.839020,361.341492 327.032837,361.350800 
	C289.393219,361.411163 251.753357,361.408966 214.113708,361.345367 
	C208.788544,361.336365 204.928787,357.412079 205.112183,352.707703 
	C205.303619,347.796844 208.981995,344.735809 214.569229,344.742615 
	C246.879288,344.781982 279.189331,344.803558 311.999146,344.830322 
z"/>
<path fill="#000000" opacity="1.000000" stroke="none" 
	d="
M275.999878,396.372070 
	C255.856964,396.367371 236.214050,396.368958 216.571152,396.348053 
	C214.589340,396.345947 212.614456,396.468109 210.676987,395.654541 
	C207.162048,394.178558 205.622986,391.600403 205.658401,387.852905 
	C205.692841,384.208496 207.489212,381.937653 210.801620,380.708923 
	C212.868515,379.942200 215.022476,379.858643 217.197449,379.858063 
	C252.987427,379.848297 288.777405,379.835236 324.567352,379.793884 
	C326.925812,379.791138 329.209167,380.074005 331.447174,380.793121 
	C335.371765,382.054077 336.967224,385.057495 336.799805,388.843903 
	C336.638245,392.497711 334.597046,395.136871 330.892914,395.974243 
	C329.135010,396.371613 327.261963,396.358704 325.440796,396.361511 
	C309.127228,396.386566 292.813538,396.373657 275.999878,396.372070 
z"/>
<path fill="#000000" opacity="1.000000" stroke="none" 
	d="
M207.352936,428.473022 
	C203.477432,420.176086 206.612335,414.751007 215.168106,414.706360 
	C236.653214,414.594269 258.139435,414.634399 279.624939,414.706696 
	C284.819458,414.724182 288.140594,417.874237 288.259247,422.434387 
	C288.377930,426.994202 284.726074,431.226654 279.858521,431.258087 
	C257.707855,431.401215 235.555740,431.323669 213.404160,431.314880 
	C211.125320,431.313965 209.196533,430.441711 207.352936,428.473022 
z"/>
</svg>